<svg width="45" height="33" viewBox="0 0 45 33" fill="none" xmlns="http://www.w3.org/2000/svg">
<circle cx="28.5" cy="16.5" r="16.5" fill="#35736E" fill-opacity="0.2"/>
<path d="M14.5 29C21.9558 29 28 22.9558 28 15.5C28 8.04416 21.9558 2 14.5 2C7.04416 2 1 8.04416 1 15.5C1 22.9558 7.04416 29 14.5 29Z" stroke="black" stroke-width="2" stroke-linecap="round" stroke-linejoin="round"/>
<path d="M14.5 20.9C17.4823 20.9 19.9 18.4823 19.9 15.5C19.9 12.5177 17.4823 10.1 14.5 10.1C11.5176 10.1 9.09998 12.5177 9.09998 15.5C9.09998 18.4823 11.5176 20.9 14.5 20.9Z" stroke="black" stroke-width="2" stroke-linecap="round" stroke-linejoin="round"/>
<path d="M18.3204 19.3204L24.0444 25.0444" stroke="black" stroke-width="2" stroke-linecap="round" stroke-linejoin="round"/>
<path d="M4.95557 25.0444L10.6796 19.3204" stroke="black" stroke-width="2" stroke-linecap="round" stroke-linejoin="round"/>
<path d="M18.3204 11.6796L24.0444 5.95557" stroke="black" stroke-width="2" stroke-linecap="round" stroke-linejoin="round"/>
<path d="M18.3204 11.6795L23.0859 6.91403" stroke="black" stroke-width="2" stroke-linecap="round" stroke-linejoin="round"/>
<path d="M4.95557 5.95557L10.6796 11.6796" stroke="black" stroke-width="2" stroke-linecap="round" stroke-linejoin="round"/>
</svg>
